<?xml version="1.0" encoding="UTF-8" standalone="no"?>
<svg
   viewBox="0 0 897.19 660"
   version="1.1"
   id="svg3420"
   sodipodi:docname="teal.svg"
   inkscape:version="1.2 (dc2aedaf03, 2022-05-15)"
   xmlns:inkscape="http://www.inkscape.org/namespaces/inkscape"
   xmlns:sodipodi="http://sodipodi.sourceforge.net/DTD/sodipodi-0.dtd"
   xmlns="http://www.w3.org/2000/svg"
   xmlns:svg="http://www.w3.org/2000/svg">
  <sodipodi:namedview
     id="namedview3422"
     pagecolor="#ffffff"
     bordercolor="#000000"
     borderopacity="0.25"
     inkscape:showpageshadow="2"
     inkscape:pageopacity="0.0"
     inkscape:pagecheckerboard="0"
     inkscape:deskcolor="#d1d1d1"
     showgrid="false"
     inkscape:zoom="0.35757576"
     inkscape:cx="447.45763"
     inkscape:cy="330"
     inkscape:window-width="2400"
     inkscape:window-height="1494"
     inkscape:window-x="-11"
     inkscape:window-y="-11"
     inkscape:window-maximized="1"
     inkscape:current-layer="svg3420" />
  <defs
     id="defs3408">
    <style
       id="style3406">.cls-1{fill:#fff;}.cls-2{fill:#1db88f;}.cls-3{fill:#14785d;}</style>
  </defs>
  <path
     class="cls-1"
     d="M 162,660 C 60.46,660 0,604.54 0,500.66 V 160.9 C 0,49.21 68.27,0 169,0 269.73,0 334.83,49.21 334.83,160.9 V 496 c 0,47.64 -4.69,89 -49.21,111.69 l 62.49,7.81 V 660 Z M 242.67,175 C 242.67,123.45 228.4,78.93 168.25,78.93 112,78.89 91.38,119.5 91.38,175 v 311.6 c 0,55.46 20.63,94.51 76.86,94.51 60.15,0 74.42,-43.74 74.42,-96.07 z"
     id="path3410"
     style="fill:#000000;fill-opacity:1" />
  <path
     class="cls-1"
     d="m 806.59,660 c -7.81,-20.31 -7.81,-76.54 -7.81,-117.94 V 453 c 0,-59.36 -31.25,-71.08 -64,-71.08 H 653.5 V 660 H 562.11 V 13.28 h 200 c 110.89,0 130.83,77.42 130.83,156.31 v 45.52 c 0,52.33 -7.47,110.59 -87.91,127 83.57,11.71 85.91,75.85 85.91,133.65 v 92.86 c 0,35.92 0.78,75 6.25,91.38 z m -5.81,-481.14 c 0,-62.48 -14.84,-88.69 -64.83,-88.69 H 653.5 v 204.88 h 82.79 c 47.65,0 64.49,-15.3 64.49,-65.29 z"
     id="path3412"
     style="fill:#000000;fill-opacity:1" />
  <path
     class="cls-2"
     d="m 582.76,233.23 a 334.86,334.86 0 0 1 -42.58,-22.6 C 509.16,191 503.68,178.71 503,177 V 13 h -79.64 v 164.61 c 0,19.48 7.56,38.55 22.44,56.77 1.27,1.55 2.57,3.1 3.94,4.64 11,12.27 25.66,24.47 43.69,36.26 a 392.74,392.74 0 0 0 34,19.74 v 72.65 a 392.74,392.74 0 0 0 -34,19.74 c -18,11.79 -32.73,22 -43.69,34.26 -1.37,1.54 -2.67,3.09 -3.94,4.64 14.88,18.22 22.44,37.29 22.44,56.77 V 660 H 503 V 483.71 c 0.65,-1.74 6.13,-14 37.15,-33.65 a 334.86,334.86 0 0 1 42.58,-22.6 l 24.35,-10.19 V 269.93 l 0.08,-26.47 z"
     id="path3414" />
  <path
     class="cls-3"
     d="m 445.8,426.31 c -1.27,-1.55 -2.57,-3.1 -3.94,-4.64 -11,-12.27 -25.66,-22.47 -43.68,-34.26 -12.05,-7.88 -24.05,-14.58 -34,-19.74 V 295 c 10,-5.16 22,-11.86 34,-19.74 18,-11.79 32.72,-24 43.68,-36.26 1.37,-1.54 2.67,-3.09 3.94,-4.64 -14.88,-18.22 -22.44,-37.29 -22.44,-56.77 V 13 h -34.79 v 164 c -0.65,1.73 -6.13,14 -37.15,33.65 a 334.86,334.86 0 0 1 -42.58,22.6 l -24.43,10.23 0.09,26.47 v 147.32 l 24.34,10.19 a 334.86,334.86 0 0 1 42.58,22.6 c 31,19.65 36.5,31.91 37.15,33.65 V 660 h 79.67 V 483.08 c 0,-19.48 -7.56,-38.55 -22.44,-56.77 z"
     id="path3416" />
</svg>
